<?xml version="1.0" encoding="utf-8"?>
<!-- Generator: Adobe Illustrator 19.0.0, SVG Export Plug-In . SVG Version: 6.00 Build 0)  -->
<svg version="1.1" id="Layer_1" xmlns="http://www.w3.org/2000/svg" xmlns:xlink="http://www.w3.org/1999/xlink" x="0px" y="0px"
	 viewBox="0 0 139 187" style="enable-background:new 0 0 139 187;" xml:space="preserve">
<style type="text/css">
	.st0{fill:#FFFFFF;}
	.st1{fill:#FFC907;}
</style>
<rect x="0.1" y="0" width="138.8" height="187"/>
<g>
	<path class="st0" d="M26.1,149.6v-16.7h6.4v16.5c0,4.8,2.4,7.2,6.3,7.2c3.9,0,6.3-2.4,6.3-7v-16.7h6.4v16.5c0,8.8-5,13.2-12.8,13.2
		C30.9,162.6,26.1,158.2,26.1,149.6z"/>
	<path class="st0" d="M58,147.6L58,147.6c0-8.4,6.3-15.2,15.2-15.2c5.5,0,8.8,1.8,11.5,4.5l-4.1,4.7c-2.3-2-4.5-3.3-7.5-3.3
		c-4.9,0-8.5,4.1-8.5,9.1v0.1c0,5,3.5,9.2,8.5,9.2c3.3,0,5.4-1.3,7.7-3.4l4.1,4.1c-3,3.2-6.3,5.2-12,5.2C64.4,162.6,58,156,58,147.6
		z"/>
	<path class="st0" d="M91.4,132.9h22.2v5.8H97.8v6.2h13.9v5.8H97.8v11.3h-6.4V132.9z"/>
</g>
<g>
	<path class="st1" d="M86.4,101.2c0-2.4-0.6-4.8-1.7-7C82.6,90,75.9,87,69.5,84c-3.1-1.4-6.3-2.9-8.8-4.4
		c-12-7.3-15.9-16.1-17.1-22.3c-0.3-1.7-0.5-3.4-0.5-5.1c0-5.3,1.6-10.3,4.4-14.1C58.8,23,78,24.7,83.6,25.6
		c-5.5,0.2-19.1,2.7-25.7,15.7c-1.3,2.5-1.9,5.2-1.9,7.8c0,10.6,10.8,19.7,19.5,27.1c3,2.5,5.8,4.9,8,7.2c3.8,4,5.8,8.3,5.8,12.7
		c0,5.2-2.7,9.3-4.3,11.3C85.9,105.4,86.4,103.3,86.4,101.2"/>
	<path class="st1" d="M33.3,95.1c2.6,2.2,8.1,5.9,18.4,8.7c5.2,1.5,10.1,1.6,14,1.7c3.5,0.1,6.3,0.2,8.1,1.1
		c1.4,0.8,2.3,2.1,2.3,3.4l-0.1,0.8c-0.5,2-3.2,4.1-9.2,4.1C48.9,115.1,37.7,101.6,33.3,95.1"/>
	<path class="st1" d="M65.7,64c0,0,7.5-12.5,15.2-14.5C90.2,47,95.3,51,95.3,51l2.6-5.1l4,19.6c0,0,0.7,1.8-2.6,4
		c-3.3,2.2-3.5,1.8-3.5,1.8s-2.1-8-6.3-8.9c-4.2-0.9-4.2,4.7-4,6.4c0.2,1.8,3.8,9.1,9.8,6c6.5-3.3,9.6-7.6,9.6-7.6s0.9-2.2,1.9-1.6
		c0.9,0.7,4.4,4.4,4.4,4.4l-1.4,23.3c0,0,0,2.9-4,4c-4,1.1-4,0.9-4,0.9l2.1-7.1h2.6l-0.7-16.5c0,0-2.2,10.7-6.3,17.8
		c-4.9,8.4-12.8,15.3-12.8,15.3s5-6,4.2-13.3c-0.5-4.8-2.6-10.4-13.1-19.1C71.9,70.7,65.7,64,65.7,64"/>
	<path class="st1" d="M77.9,109.4c0-0.7-0.2-1.4-0.5-2c-1.2-2.2-4.4-3.5-9.5-3.6c-9.3-0.3-31.7-2.7-38-17.5c-2-4.8-3-9.9-3-15.4
		c0-6.2,1.3-11.3,2.2-14.1C29,57.6,29,59,29,59c0,5.8,1.4,16.8,10.8,24.6c6,4.9,14.9,8.8,26.5,11.6c7.9,1.9,12.4,4.7,13.4,8.4
		l0.2,1.6c0,1.8-0.8,3.8-2.3,5.7C77.7,110.4,77.9,109.4,77.9,109.4"/>
	<path class="st1" d="M82,105.3c0-1-0.2-2.2-0.7-3.4c-1.7-4-6.5-6.9-14.1-8.5C47,89,35.6,80.9,32.3,68.7c-0.8-3-1.2-5.8-1.2-8.4
		c0-16.7,14.7-25.7,19.7-28.2c-2.7,2.5-8.4,8.7-9.4,16.5c-0.2,1.4-0.3,2.8-0.3,4.2c0,9.9,5.1,18.6,15.6,26.5c3.3,2.5,7.7,4.5,12,6.4
		c6.2,2.8,12,5.4,14.3,9.3c1.1,1.9,1.6,3.8,1.6,5.5c0,3.6-1.8,6.5-3.1,8.1C81.7,107.7,82,106.6,82,105.3"/>
	<path class="st1" d="M81.4,36.8c-3.3,0-6.3-3-6.3-6.3c0,3.3-3,6.3-6.3,6.3c3.3,0,6.3,3,6.3,6.3C75.1,39.8,78.2,36.8,81.4,36.8"/>
</g>
</svg>
